<svg width="28" height="24" viewBox="0 0 28 24" fill="none" xmlns="http://www.w3.org/2000/svg">
<path d="M5.80727 5.11949C5.49737 4.95262 5.12256 4.96096 4.82038 5.14144C4.51821 5.32193 4.33317 5.64799 4.33317 5.99996V18.6666C4.33317 19.2189 4.78089 19.6666 5.33317 19.6666C5.88546 19.6666 6.33317 19.2189 6.33317 18.6666V7.67418L13.5257 11.5471C13.8217 11.7065 14.178 11.7065 14.4739 11.5471L21.6665 7.67418V18.6666C21.6665 19.2189 22.1142 19.6666 22.6665 19.6666C23.2188 19.6666 23.6665 19.2189 23.6665 18.6666V5.99996C23.6665 5.64799 23.4815 5.32193 23.1793 5.14144C22.8771 4.96096 22.5023 4.95262 22.1924 5.11949L13.9998 9.53087L5.80727 5.11949Z" fill="black"/>
<path fill-rule="evenodd" clip-rule="evenodd" d="M21.0806 0.962407C16.3695 0.541177 11.6302 0.541177 6.91907 0.962406L4.89595 1.1433C2.7258 1.33733 0.972367 2.99523 0.657179 5.15112C-0.00682001 9.69287 -0.00681993 14.307 0.657179 18.8488C0.972367 21.0047 2.7258 22.6626 4.89595 22.8566L6.91907 23.0375C11.6302 23.4587 16.3695 23.4587 21.0806 23.0375L23.1038 22.8566C25.2739 22.6626 27.0273 21.0047 27.3425 18.8488C28.0065 14.307 28.0065 9.69287 27.3425 5.15112C27.0273 2.99523 25.2739 1.33733 23.1038 1.1433L21.0806 0.962407ZM7.09719 2.95446C11.6898 2.54383 16.3099 2.54383 20.9025 2.95446L22.9256 3.13535C24.1738 3.24695 25.1823 4.20049 25.3636 5.44044C25.9995 9.79033 25.9995 14.2096 25.3636 18.5595C25.1823 19.7994 24.1738 20.753 22.9256 20.8646L20.9025 21.0455C16.3099 21.4561 11.6898 21.4561 7.09719 21.0455L5.07406 20.8646C3.8259 20.753 2.81742 19.7994 2.63614 18.5595C2.00019 14.2096 2.00019 9.79033 2.63614 5.44044C2.81742 4.20049 3.8259 3.24695 5.07406 3.13535L7.09719 2.95446Z" fill="black"/>
</svg>
