<svg width="38" height="49" viewBox="0 0 38 49" fill="none" xmlns="http://www.w3.org/2000/svg">
<path d="M13 26C13.5523 26 14 25.5523 14 25C14 24.4477 13.5523 24 13 24C12.4477 24 12 24.4477 12 25C12 25.5523 12.4477 26 13 26Z" stroke="#0D832E" stroke-width="2" stroke-linecap="round" stroke-linejoin="round"/>
<path d="M24 26C24.5523 26 25 25.5523 25 25C25 24.4477 24.5523 24 24 24C23.4477 24 23 24.4477 23 25C23 25.5523 23.4477 26 24 26Z" stroke="#0D832E" stroke-width="2" stroke-linecap="round" stroke-linejoin="round"/>
<path d="M5 5H9L11.68 18.39C11.7714 18.8504 12.0219 19.264 12.3875 19.5583C12.7532 19.8526 13.2107 20.009 13.68 20H23.4C23.8693 20.009 24.3268 19.8526 24.6925 19.5583C25.0581 19.264 25.3086 18.8504 25.4 18.39L27 10H10" stroke="#0D832E" stroke-width="2" stroke-linecap="round" stroke-linejoin="round"/>
<path d="M9.042 40.704C9.042 41.348 8.94 41.94 8.736 42.48C8.532 43.016 8.244 43.478 7.872 43.866C7.5 44.254 7.052 44.556 6.528 44.772C6.008 44.984 5.432 45.09 4.8 45.09C4.168 45.09 3.592 44.984 3.072 44.772C2.552 44.556 2.106 44.254 1.734 43.866C1.362 43.478 1.074 43.016 0.87 42.48C0.666 41.94 0.564 41.348 0.564 40.704C0.564 40.06 0.666 39.47 0.87 38.934C1.074 38.394 1.362 37.93 1.734 37.542C2.106 37.15 2.552 36.846 3.072 36.63C3.592 36.414 4.168 36.306 4.8 36.306C5.432 36.306 6.008 36.414 6.528 36.63C7.052 36.846 7.5 37.15 7.872 37.542C8.244 37.93 8.532 38.394 8.736 38.934C8.94 39.47 9.042 40.06 9.042 40.704ZM7.848 40.704C7.848 40.176 7.776 39.702 7.632 39.282C7.488 38.862 7.284 38.508 7.02 38.22C6.756 37.928 6.436 37.704 6.06 37.548C5.684 37.392 5.264 37.314 4.8 37.314C4.34 37.314 3.922 37.392 3.546 37.548C3.17 37.704 2.848 37.928 2.58 38.22C2.316 38.508 2.112 38.862 1.968 39.282C1.824 39.702 1.752 40.176 1.752 40.704C1.752 41.232 1.824 41.706 1.968 42.126C2.112 42.542 2.316 42.896 2.58 43.188C2.848 43.476 3.17 43.698 3.546 43.854C3.922 44.006 4.34 44.082 4.8 44.082C5.264 44.082 5.684 44.006 6.06 43.854C6.436 43.698 6.756 43.476 7.02 43.188C7.284 42.896 7.488 42.542 7.632 42.126C7.776 41.706 7.848 41.232 7.848 40.704ZM11.5922 40.14C11.7842 39.724 12.0202 39.4 12.3002 39.168C12.5802 38.932 12.9222 38.814 13.3262 38.814C13.4542 38.814 13.5762 38.828 13.6922 38.856C13.8122 38.884 13.9182 38.928 14.0102 38.988L13.9322 39.786C13.9082 39.886 13.8482 39.936 13.7522 39.936C13.6962 39.936 13.6142 39.924 13.5062 39.9C13.3982 39.876 13.2762 39.864 13.1402 39.864C12.9482 39.864 12.7762 39.892 12.6242 39.948C12.4762 40.004 12.3422 40.088 12.2222 40.2C12.1062 40.308 12.0002 40.444 11.9042 40.608C11.8122 40.768 11.7282 40.952 11.6522 41.16V45H10.5782V38.922H11.1902C11.3062 38.922 11.3862 38.944 11.4302 38.988C11.4742 39.032 11.5042 39.108 11.5202 39.216L11.5922 40.14ZM18.9149 40.368C18.7149 40.1 18.4989 39.914 18.2669 39.81C18.0349 39.702 17.7749 39.648 17.4869 39.648C16.9229 39.648 16.4889 39.85 16.1849 40.254C15.8809 40.658 15.7289 41.234 15.7289 41.982C15.7289 42.378 15.7629 42.718 15.8309 43.002C15.8989 43.282 15.9989 43.514 16.1309 43.698C16.2629 43.878 16.4249 44.01 16.6169 44.094C16.8089 44.178 17.0269 44.22 17.2709 44.22C17.6229 44.22 17.9289 44.14 18.1889 43.98C18.4529 43.82 18.6949 43.594 18.9149 43.302V40.368ZM19.9829 36.162V45H19.3469C19.1949 45 19.0989 44.926 19.0589 44.778L18.9629 44.04C18.7029 44.352 18.4069 44.604 18.0749 44.796C17.7429 44.988 17.3589 45.084 16.9229 45.084C16.5749 45.084 16.2589 45.018 15.9749 44.886C15.6909 44.75 15.4489 44.552 15.2489 44.292C15.0489 44.032 14.8949 43.708 14.7869 43.32C14.6789 42.932 14.6249 42.486 14.6249 41.982C14.6249 41.534 14.6849 41.118 14.8049 40.734C14.9249 40.346 15.0969 40.01 15.3209 39.726C15.5449 39.442 15.8189 39.22 16.1429 39.06C16.4709 38.896 16.8389 38.814 17.2469 38.814C17.6189 38.814 17.9369 38.878 18.2009 39.006C18.4689 39.13 18.7069 39.304 18.9149 39.528V36.162H19.9829ZM25.9777 41.298C25.9777 41.05 25.9417 40.824 25.8697 40.62C25.8017 40.412 25.6997 40.234 25.5637 40.086C25.4317 39.934 25.2697 39.818 25.0777 39.738C24.8857 39.654 24.6677 39.612 24.4237 39.612C23.9117 39.612 23.5057 39.762 23.2057 40.062C22.9097 40.358 22.7257 40.77 22.6537 41.298H25.9777ZM26.8417 44.148C26.7097 44.308 26.5517 44.448 26.3677 44.568C26.1837 44.684 25.9857 44.78 25.7737 44.856C25.5657 44.932 25.3497 44.988 25.1257 45.024C24.9017 45.064 24.6797 45.084 24.4597 45.084C24.0397 45.084 23.6517 45.014 23.2957 44.874C22.9437 44.73 22.6377 44.522 22.3777 44.25C22.1217 43.974 21.9217 43.634 21.7777 43.23C21.6337 42.826 21.5617 42.362 21.5617 41.838C21.5617 41.414 21.6257 41.018 21.7537 40.65C21.8857 40.282 22.0737 39.964 22.3177 39.696C22.5617 39.424 22.8597 39.212 23.2117 39.06C23.5637 38.904 23.9597 38.826 24.3997 38.826C24.7637 38.826 25.0997 38.888 25.4077 39.012C25.7197 39.132 25.9877 39.308 26.2117 39.54C26.4397 39.768 26.6177 40.052 26.7457 40.392C26.8737 40.728 26.9377 41.112 26.9377 41.544C26.9377 41.712 26.9197 41.824 26.8837 41.88C26.8477 41.936 26.7797 41.964 26.6797 41.964H22.6177C22.6297 42.348 22.6817 42.682 22.7737 42.966C22.8697 43.25 23.0017 43.488 23.1697 43.68C23.3377 43.868 23.5377 44.01 23.7697 44.106C24.0017 44.198 24.2617 44.244 24.5497 44.244C24.8177 44.244 25.0477 44.214 25.2397 44.154C25.4357 44.09 25.6037 44.022 25.7437 43.95C25.8837 43.878 25.9997 43.812 26.0917 43.752C26.1877 43.688 26.2697 43.656 26.3377 43.656C26.4257 43.656 26.4937 43.69 26.5417 43.758L26.8417 44.148ZM29.5036 40.14C29.6956 39.724 29.9316 39.4 30.2116 39.168C30.4916 38.932 30.8336 38.814 31.2376 38.814C31.3656 38.814 31.4876 38.828 31.6036 38.856C31.7236 38.884 31.8296 38.928 31.9216 38.988L31.8436 39.786C31.8196 39.886 31.7596 39.936 31.6636 39.936C31.6076 39.936 31.5256 39.924 31.4176 39.9C31.3096 39.876 31.1876 39.864 31.0516 39.864C30.8596 39.864 30.6876 39.892 30.5356 39.948C30.3876 40.004 30.2536 40.088 30.1336 40.2C30.0176 40.308 29.9116 40.444 29.8156 40.608C29.7236 40.768 29.6396 40.952 29.5636 41.16V45H28.4896V38.922H29.1016C29.2176 38.922 29.2976 38.944 29.3416 38.988C29.3856 39.032 29.4156 39.108 29.4316 39.216L29.5036 40.14ZM36.6055 39.924C36.5575 40.012 36.4835 40.056 36.3835 40.056C36.3235 40.056 36.2555 40.034 36.1795 39.99C36.1035 39.946 36.0095 39.898 35.8975 39.846C35.7895 39.79 35.6595 39.74 35.5075 39.696C35.3555 39.648 35.1755 39.624 34.9675 39.624C34.7875 39.624 34.6255 39.648 34.4815 39.696C34.3375 39.74 34.2135 39.802 34.1095 39.882C34.0095 39.962 33.9315 40.056 33.8755 40.164C33.8235 40.268 33.7975 40.382 33.7975 40.506C33.7975 40.662 33.8415 40.792 33.9295 40.896C34.0215 41 34.1415 41.09 34.2895 41.166C34.4375 41.242 34.6055 41.31 34.7935 41.37C34.9815 41.426 35.1735 41.488 35.3695 41.556C35.5695 41.62 35.7635 41.692 35.9515 41.772C36.1395 41.852 36.3075 41.952 36.4555 42.072C36.6035 42.192 36.7215 42.34 36.8095 42.516C36.9015 42.688 36.9475 42.896 36.9475 43.14C36.9475 43.42 36.8975 43.68 36.7975 43.92C36.6975 44.156 36.5495 44.362 36.3535 44.538C36.1575 44.71 35.9175 44.846 35.6335 44.946C35.3495 45.046 35.0215 45.096 34.6495 45.096C34.2255 45.096 33.8415 45.028 33.4975 44.892C33.1535 44.752 32.8615 44.574 32.6215 44.358L32.8735 43.95C32.9055 43.898 32.9435 43.858 32.9875 43.83C33.0315 43.802 33.0875 43.788 33.1555 43.788C33.2275 43.788 33.3035 43.816 33.3835 43.872C33.4635 43.928 33.5595 43.99 33.6715 44.058C33.7875 44.126 33.9275 44.188 34.0915 44.244C34.2555 44.3 34.4595 44.328 34.7035 44.328C34.9115 44.328 35.0935 44.302 35.2495 44.25C35.4055 44.194 35.5355 44.12 35.6395 44.028C35.7435 43.936 35.8195 43.83 35.8675 43.71C35.9195 43.59 35.9455 43.462 35.9455 43.326C35.9455 43.158 35.8995 43.02 35.8075 42.912C35.7195 42.8 35.6015 42.706 35.4535 42.63C35.3055 42.55 35.1355 42.482 34.9435 42.426C34.7555 42.366 34.5615 42.304 34.3615 42.24C34.1655 42.176 33.9715 42.104 33.7795 42.024C33.5915 41.94 33.4235 41.836 33.2755 41.712C33.1275 41.588 33.0075 41.436 32.9155 41.256C32.8275 41.072 32.7835 40.85 32.7835 40.59C32.7835 40.358 32.8315 40.136 32.9275 39.924C33.0235 39.708 33.1635 39.52 33.3475 39.36C33.5315 39.196 33.7575 39.066 34.0255 38.97C34.2935 38.874 34.5995 38.826 34.9435 38.826C35.3435 38.826 35.7015 38.89 36.0175 39.018C36.3375 39.142 36.6135 39.314 36.8455 39.534L36.6055 39.924Z" fill="#0D832E"/>
</svg>
