<svg width="32" height="49" viewBox="0 0 32 49" fill="none" xmlns="http://www.w3.org/2000/svg">
<path d="M10 6L7 10V24C7 24.5304 7.21071 25.0391 7.58579 25.4142C7.96086 25.7893 8.46957 26 9 26H23C23.5304 26 24.0391 25.7893 24.4142 25.4142C24.7893 25.0391 25 24.5304 25 24V10L22 6H10Z" stroke="#0D832E" stroke-width="2" stroke-linecap="round" stroke-linejoin="round"/>
<path d="M7 10H25" stroke="#0D832E" stroke-width="2" stroke-linecap="round" stroke-linejoin="round"/>
<path d="M20 14C20 15.0609 19.5786 16.0783 18.8284 16.8284C18.0783 17.5786 17.0609 18 16 18C14.9391 18 13.9217 17.5786 13.1716 16.8284C12.4214 16.0783 12 15.0609 12 14" stroke="#0D832E" stroke-width="2" stroke-linecap="round" stroke-linejoin="round"/>
<path d="M7.496 37.746C7.46 37.806 7.42 37.852 7.376 37.884C7.336 37.912 7.286 37.926 7.226 37.926C7.158 37.926 7.078 37.892 6.986 37.824C6.894 37.756 6.778 37.682 6.638 37.602C6.502 37.518 6.336 37.442 6.14 37.374C5.948 37.306 5.714 37.272 5.438 37.272C5.178 37.272 4.948 37.308 4.748 37.38C4.552 37.448 4.386 37.542 4.25 37.662C4.118 37.782 4.018 37.924 3.95 38.088C3.882 38.248 3.848 38.422 3.848 38.61C3.848 38.85 3.906 39.05 4.022 39.21C4.142 39.366 4.298 39.5 4.49 39.612C4.686 39.724 4.906 39.822 5.15 39.906C5.398 39.986 5.65 40.07 5.906 40.158C6.166 40.246 6.418 40.346 6.662 40.458C6.91 40.566 7.13 40.704 7.322 40.872C7.518 41.04 7.674 41.246 7.79 41.49C7.91 41.734 7.97 42.034 7.97 42.39C7.97 42.766 7.906 43.12 7.778 43.452C7.65 43.78 7.462 44.066 7.214 44.31C6.97 44.554 6.668 44.746 6.308 44.886C5.952 45.026 5.546 45.096 5.09 45.096C4.53 45.096 4.022 44.996 3.566 44.796C3.11 44.592 2.72 44.318 2.396 43.974L2.732 43.422C2.764 43.378 2.802 43.342 2.846 43.314C2.894 43.282 2.946 43.266 3.002 43.266C3.054 43.266 3.112 43.288 3.176 43.332C3.244 43.372 3.32 43.424 3.404 43.488C3.488 43.552 3.584 43.622 3.692 43.698C3.8 43.774 3.922 43.844 4.058 43.908C4.198 43.972 4.356 44.026 4.532 44.07C4.708 44.11 4.906 44.13 5.126 44.13C5.402 44.13 5.648 44.092 5.864 44.016C6.08 43.94 6.262 43.834 6.41 43.698C6.562 43.558 6.678 43.392 6.758 43.2C6.838 43.008 6.878 42.794 6.878 42.558C6.878 42.298 6.818 42.086 6.698 41.922C6.582 41.754 6.428 41.614 6.236 41.502C6.044 41.39 5.824 41.296 5.576 41.22C5.328 41.14 5.076 41.06 4.82 40.98C4.564 40.896 4.312 40.8 4.064 40.692C3.816 40.584 3.596 40.444 3.404 40.272C3.212 40.1 3.056 39.886 2.936 39.63C2.82 39.37 2.762 39.05 2.762 38.67C2.762 38.366 2.82 38.072 2.936 37.788C3.056 37.504 3.228 37.252 3.452 37.032C3.68 36.812 3.958 36.636 4.286 36.504C4.618 36.372 4.998 36.306 5.426 36.306C5.906 36.306 6.342 36.382 6.734 36.534C7.13 36.686 7.478 36.906 7.778 37.194L7.496 37.746ZM10.5702 39.732C10.8302 39.456 11.1182 39.236 11.4342 39.072C11.7502 38.908 12.1142 38.826 12.5262 38.826C12.8582 38.826 13.1502 38.882 13.4022 38.994C13.6582 39.102 13.8702 39.258 14.0382 39.462C14.2102 39.662 14.3402 39.904 14.4282 40.188C14.5162 40.472 14.5602 40.786 14.5602 41.13V45H13.4862V41.13C13.4862 40.67 13.3802 40.314 13.1682 40.062C12.9602 39.806 12.6422 39.678 12.2142 39.678C11.8982 39.678 11.6022 39.754 11.3262 39.906C11.0542 40.058 10.8022 40.264 10.5702 40.524V45H9.49616V36.162H10.5702V39.732ZM18.9896 38.826C19.4336 38.826 19.8336 38.9 20.1896 39.048C20.5456 39.196 20.8496 39.406 21.1016 39.678C21.3536 39.95 21.5456 40.28 21.6776 40.668C21.8136 41.052 21.8816 41.482 21.8816 41.958C21.8816 42.438 21.8136 42.87 21.6776 43.254C21.5456 43.638 21.3536 43.966 21.1016 44.238C20.8496 44.51 20.5456 44.72 20.1896 44.868C19.8336 45.012 19.4336 45.084 18.9896 45.084C18.5416 45.084 18.1376 45.012 17.7776 44.868C17.4216 44.72 17.1176 44.51 16.8656 44.238C16.6136 43.966 16.4196 43.638 16.2836 43.254C16.1516 42.87 16.0856 42.438 16.0856 41.958C16.0856 41.482 16.1516 41.052 16.2836 40.668C16.4196 40.28 16.6136 39.95 16.8656 39.678C17.1176 39.406 17.4216 39.196 17.7776 39.048C18.1376 38.9 18.5416 38.826 18.9896 38.826ZM18.9896 44.25C19.5896 44.25 20.0376 44.05 20.3336 43.65C20.6296 43.246 20.7776 42.684 20.7776 41.964C20.7776 41.24 20.6296 40.676 20.3336 40.272C20.0376 39.868 19.5896 39.666 18.9896 39.666C18.6856 39.666 18.4196 39.718 18.1916 39.822C17.9676 39.926 17.7796 40.076 17.6276 40.272C17.4796 40.468 17.3676 40.71 17.2916 40.998C17.2196 41.282 17.1836 41.604 17.1836 41.964C17.1836 42.684 17.3316 43.246 17.6276 43.65C17.9276 44.05 18.3816 44.25 18.9896 44.25ZM24.5502 43.536C24.7462 43.8 24.9602 43.986 25.1922 44.094C25.4242 44.202 25.6842 44.256 25.9722 44.256C26.5402 44.256 26.9762 44.054 27.2802 43.65C27.5842 43.246 27.7362 42.67 27.7362 41.922C27.7362 41.526 27.7002 41.186 27.6282 40.902C27.5602 40.618 27.4602 40.386 27.3282 40.206C27.1962 40.022 27.0342 39.888 26.8422 39.804C26.6502 39.72 26.4322 39.678 26.1882 39.678C25.8402 39.678 25.5342 39.758 25.2702 39.918C25.0102 40.078 24.7702 40.304 24.5502 40.596V43.536ZM24.4962 39.864C24.7522 39.548 25.0482 39.294 25.3842 39.102C25.7202 38.91 26.1042 38.814 26.5362 38.814C26.8882 38.814 27.2062 38.882 27.4902 39.018C27.7742 39.15 28.0162 39.348 28.2162 39.612C28.4162 39.872 28.5702 40.196 28.6782 40.584C28.7862 40.972 28.8402 41.418 28.8402 41.922C28.8402 42.37 28.7802 42.788 28.6602 43.176C28.5402 43.56 28.3662 43.894 28.1382 44.178C27.9142 44.458 27.6382 44.68 27.3102 44.844C26.9862 45.004 26.6202 45.084 26.2122 45.084C25.8402 45.084 25.5202 45.022 25.2522 44.898C24.9882 44.77 24.7542 44.594 24.5502 44.37V47.058H23.4762V38.922H24.1182C24.2702 38.922 24.3642 38.996 24.4002 39.144L24.4962 39.864Z" fill="#0D832E"/>
</svg>
