<svg width="36" height="49" viewBox="0 0 36 49" fill="none" xmlns="http://www.w3.org/2000/svg">
<g opacity="0.4">
<path d="M25 25V23C25 21.9391 24.5786 20.9217 23.8284 20.1716C23.0783 19.4214 22.0609 19 21 19H13C11.9391 19 10.9217 19.4214 10.1716 20.1716C9.42143 20.9217 9 21.9391 9 23V25" stroke="#0D832E" stroke-width="2" stroke-linecap="round" stroke-linejoin="round"/>
<path d="M17 15C19.2091 15 21 13.2091 21 11C21 8.79086 19.2091 7 17 7C14.7909 7 13 8.79086 13 11C13 13.2091 14.7909 15 17 15Z" stroke="#0D832E" stroke-width="2" stroke-linecap="round" stroke-linejoin="round"/>
<path d="M3.636 40.86C3.968 40.86 4.26 40.816 4.512 40.728C4.768 40.64 4.982 40.518 5.154 40.362C5.33 40.202 5.462 40.012 5.55 39.792C5.638 39.572 5.682 39.33 5.682 39.066C5.682 38.518 5.512 38.09 5.172 37.782C4.836 37.474 4.324 37.32 3.636 37.32H2.256V40.86H3.636ZM3.636 36.402C4.18 36.402 4.652 36.466 5.052 36.594C5.456 36.718 5.79 36.896 6.054 37.128C6.318 37.36 6.514 37.64 6.642 37.968C6.774 38.296 6.84 38.662 6.84 39.066C6.84 39.466 6.77 39.832 6.63 40.164C6.49 40.496 6.284 40.782 6.012 41.022C5.744 41.262 5.41 41.45 5.01 41.586C4.614 41.718 4.156 41.784 3.636 41.784H2.256V45H1.098V36.402H3.636ZM9.18984 40.14C9.38184 39.724 9.61784 39.4 9.89784 39.168C10.1778 38.932 10.5198 38.814 10.9238 38.814C11.0518 38.814 11.1738 38.828 11.2898 38.856C11.4098 38.884 11.5158 38.928 11.6078 38.988L11.5298 39.786C11.5058 39.886 11.4458 39.936 11.3498 39.936C11.2938 39.936 11.2118 39.924 11.1038 39.9C10.9958 39.876 10.8738 39.864 10.7378 39.864C10.5458 39.864 10.3738 39.892 10.2218 39.948C10.0738 40.004 9.93984 40.088 9.81984 40.2C9.70384 40.308 9.59784 40.444 9.50184 40.608C9.40984 40.768 9.32584 40.952 9.24984 41.16V45H8.17584V38.922H8.78784C8.90384 38.922 8.98384 38.944 9.02784 38.988C9.07184 39.032 9.10184 39.108 9.11784 39.216L9.18984 40.14ZM15.1028 38.826C15.5468 38.826 15.9468 38.9 16.3028 39.048C16.6588 39.196 16.9628 39.406 17.2148 39.678C17.4668 39.95 17.6588 40.28 17.7908 40.668C17.9268 41.052 17.9948 41.482 17.9948 41.958C17.9948 42.438 17.9268 42.87 17.7908 43.254C17.6588 43.638 17.4668 43.966 17.2148 44.238C16.9628 44.51 16.6588 44.72 16.3028 44.868C15.9468 45.012 15.5468 45.084 15.1028 45.084C14.6548 45.084 14.2508 45.012 13.8908 44.868C13.5348 44.72 13.2308 44.51 12.9788 44.238C12.7268 43.966 12.5328 43.638 12.3968 43.254C12.2648 42.87 12.1988 42.438 12.1988 41.958C12.1988 41.482 12.2648 41.052 12.3968 40.668C12.5328 40.28 12.7268 39.95 12.9788 39.678C13.2308 39.406 13.5348 39.196 13.8908 39.048C14.2508 38.9 14.6548 38.826 15.1028 38.826ZM15.1028 44.25C15.7028 44.25 16.1508 44.05 16.4468 43.65C16.7428 43.246 16.8908 42.684 16.8908 41.964C16.8908 41.24 16.7428 40.676 16.4468 40.272C16.1508 39.868 15.7028 39.666 15.1028 39.666C14.7988 39.666 14.5328 39.718 14.3048 39.822C14.0808 39.926 13.8928 40.076 13.7408 40.272C13.5928 40.468 13.4808 40.71 13.4048 40.998C13.3328 41.282 13.2968 41.604 13.2968 41.964C13.2968 42.684 13.4448 43.246 13.7408 43.65C14.0408 44.05 14.4948 44.25 15.1028 44.25ZM19.8685 45V39.834L19.1965 39.756C19.1085 39.736 19.0385 39.706 18.9865 39.666C18.9345 39.622 18.9085 39.56 18.9085 39.48V39.042H19.8685V38.706C19.8685 38.334 19.9265 37.994 20.0425 37.686C20.1585 37.374 20.3325 37.106 20.5645 36.882C20.7965 36.658 21.0845 36.484 21.4285 36.36C21.7765 36.236 22.1785 36.174 22.6345 36.174C22.7865 36.174 22.9425 36.184 23.1025 36.204C23.2625 36.224 23.4005 36.254 23.5165 36.294L23.4745 36.852C23.4705 36.892 23.4545 36.92 23.4265 36.936C23.4025 36.952 23.3685 36.962 23.3245 36.966C23.2805 36.97 23.2245 36.972 23.1565 36.972C23.0925 36.968 23.0185 36.966 22.9345 36.966C22.2225 36.966 21.7065 37.114 21.3865 37.41C21.0665 37.702 20.9065 38.144 20.9065 38.736V39.042H24.5785V45H23.5045V39.816H20.9365V45H19.8685ZM27.6717 36.162V45H26.6037V36.162H27.6717ZM33.7117 41.298C33.7117 41.05 33.6757 40.824 33.6037 40.62C33.5357 40.412 33.4337 40.234 33.2977 40.086C33.1657 39.934 33.0037 39.818 32.8117 39.738C32.6197 39.654 32.4017 39.612 32.1577 39.612C31.6457 39.612 31.2397 39.762 30.9397 40.062C30.6437 40.358 30.4597 40.77 30.3877 41.298H33.7117ZM34.5757 44.148C34.4437 44.308 34.2857 44.448 34.1017 44.568C33.9177 44.684 33.7197 44.78 33.5077 44.856C33.2997 44.932 33.0837 44.988 32.8597 45.024C32.6357 45.064 32.4137 45.084 32.1937 45.084C31.7737 45.084 31.3857 45.014 31.0297 44.874C30.6777 44.73 30.3717 44.522 30.1117 44.25C29.8557 43.974 29.6557 43.634 29.5117 43.23C29.3677 42.826 29.2957 42.362 29.2957 41.838C29.2957 41.414 29.3597 41.018 29.4877 40.65C29.6197 40.282 29.8077 39.964 30.0517 39.696C30.2957 39.424 30.5937 39.212 30.9457 39.06C31.2977 38.904 31.6937 38.826 32.1337 38.826C32.4977 38.826 32.8337 38.888 33.1417 39.012C33.4537 39.132 33.7217 39.308 33.9457 39.54C34.1737 39.768 34.3517 40.052 34.4797 40.392C34.6077 40.728 34.6717 41.112 34.6717 41.544C34.6717 41.712 34.6537 41.824 34.6177 41.88C34.5817 41.936 34.5137 41.964 34.4137 41.964H30.3517C30.3637 42.348 30.4157 42.682 30.5077 42.966C30.6037 43.25 30.7357 43.488 30.9037 43.68C31.0717 43.868 31.2717 44.01 31.5037 44.106C31.7357 44.198 31.9957 44.244 32.2837 44.244C32.5517 44.244 32.7817 44.214 32.9737 44.154C33.1697 44.09 33.3377 44.022 33.4777 43.95C33.6177 43.878 33.7337 43.812 33.8257 43.752C33.9217 43.688 34.0037 43.656 34.0717 43.656C34.1597 43.656 34.2277 43.69 34.2757 43.758L34.5757 44.148Z" fill="#0D832E"/>
</g>
</svg>
